<svg width="23" height="21" viewBox="0 0 23 21" fill="none" xmlns="http://www.w3.org/2000/svg">
<path d="M21.4383 17.5V18.6667C21.4383 19.95 20.3664 21 19.0563 21H2.38203C1.06 21 0 19.95 0 18.6667V2.33333C0 1.05 1.06 0 2.38203 0H19.0563C20.3664 0 21.4383 1.05 21.4383 2.33333V3.5H10.7191C9.39712 3.5 8.33711 4.55 8.33711 5.83333V15.1667C8.33711 16.45 9.39712 17.5 10.7191 17.5H21.4383ZM10.7191 15.1667H22.6293V5.83333H10.7191V15.1667ZM15.4832 12.25C14.4947 12.25 13.6967 11.4683 13.6967 10.5C13.6967 9.53167 14.4947 8.75 15.4832 8.75C16.4718 8.75 17.2697 9.53167 17.2697 10.5C17.2697 11.4683 16.4718 12.25 15.4832 12.25Z" fill="#BFC8CB"/>
</svg>
