<svg width="33" height="23" viewBox="0 0 33 23" fill="none" xmlns="http://www.w3.org/2000/svg">
<path d="M16.5 0C9 0 2.595 4.665 0 11.25C2.595 17.835 9 22.5 16.5 22.5C24 22.5 30.405 17.835 33 11.25C30.405 4.665 24 0 16.5 0ZM16.5 18.75C12.36 18.75 9 15.39 9 11.25C9 7.11 12.36 3.75 16.5 3.75C20.64 3.75 24 7.11 24 11.25C24 15.39 20.64 18.75 16.5 18.75ZM16.5 6.75C14.01 6.75 12 8.76 12 11.25C12 13.74 14.01 15.75 16.5 15.75C18.99 15.75 21 13.74 21 11.25C21 8.76 18.99 6.75 16.5 6.75Z" fill="#00687B"/>
</svg>
