<svg width="21" height="11" viewBox="0 0 21 11" fill="none" xmlns="http://www.w3.org/2000/svg">
<path d="M10.5 0C5.72727 0 1.65136 2.22297 0 5.36086C1.65136 8.49875 5.72727 10.7217 10.5 10.7217C15.2727 10.7217 19.3486 8.49875 21 5.36086C19.3486 2.22297 15.2727 0 10.5 0ZM10.5 8.93477C7.86545 8.93477 5.72727 7.33366 5.72727 5.36086C5.72727 3.38806 7.86545 1.78695 10.5 1.78695C13.1345 1.78695 15.2727 3.38806 15.2727 5.36086C15.2727 7.33366 13.1345 8.93477 10.5 8.93477ZM10.5 3.21652C8.91545 3.21652 7.63636 4.17432 7.63636 5.36086C7.63636 6.5474 8.91545 7.50521 10.5 7.50521C12.0845 7.50521 13.3636 6.5474 13.3636 5.36086C13.3636 4.17432 12.0845 3.21652 10.5 3.21652Z" fill="#00687B"/>
</svg>
