<svg width="21" height="11" viewBox="0 0 21 11" fill="none" xmlns="http://www.w3.org/2000/svg">
<path d="M10.5 0C5.72726 0 1.65136 2.22297 0 5.36085C1.65136 8.49874 5.72726 10.7217 10.5 10.7217C15.2727 10.7217 19.3486 8.49874 21 5.36085C19.3486 2.22297 15.2727 0 10.5 0ZM10.5 8.93476C7.86544 8.93476 5.72726 7.33365 5.72726 5.36085C5.72726 3.38806 7.86544 1.78695 10.5 1.78695C13.1345 1.78695 15.2727 3.38806 15.2727 5.36085C15.2727 7.33365 13.1345 8.93476 10.5 8.93476ZM10.5 3.21651C8.91544 3.21651 7.63635 4.17432 7.63635 5.36085C7.63635 6.54739 8.91544 7.50519 10.5 7.50519C12.0845 7.50519 13.3636 6.54739 13.3636 5.36085C13.3636 4.17432 12.0845 3.21651 10.5 3.21651Z" fill="#00687B"/>
</svg>
