<svg width="224" height="227" viewBox="0 0 224 227" fill="none" xmlns="http://www.w3.org/2000/svg">
<path fill-rule="evenodd" clip-rule="evenodd" d="M98.2646 0.568198C95.9392 0.833012 92.8257 1.34901 91.3459 1.71508C89.866 2.08212 88.2622 2.47739 87.7818 2.59422C86.865 2.8162 86.8602 2.90285 87.5579 6.69884C87.8413 8.24294 88.0287 8.26826 92.3837 7.3677C108.374 4.05849 133.442 6.03097 146.696 11.6398C147.119 11.8189 148.157 12.2366 149.002 12.5676C152.655 13.9997 154.251 14.7124 158.469 16.7949C166.813 20.9131 175.507 26.8978 182.706 33.4772C191.605 41.6105 199.421 51.6151 204.762 61.7111C205.554 63.2104 206.491 64.9629 206.842 65.6055C207.908 67.5536 210.975 75.168 211.862 78.0673C212.32 79.5666 212.837 81.1438 213.011 81.5722C213.184 82.0006 213.611 83.4025 213.959 84.6877C214.307 85.9728 214.757 87.6376 214.96 88.3873C216.905 95.5743 218.165 109.358 217.717 118.554C217.474 123.561 217.393 123.42 220.662 123.72L222.891 123.924L223.113 122.61C224.061 116.987 223.613 104.591 222.164 96.3706C221.749 94.0146 221.264 91.2107 221.087 90.1397C220.909 89.0688 220.478 87.1411 220.127 85.856C219.777 84.5708 219.402 83.0812 219.292 82.5458C219.182 82.0103 218.941 81.2217 218.757 80.7933C218.572 80.3649 217.869 78.262 217.195 76.1201C215.851 71.8481 212.606 64.1042 211.202 61.8163C210.712 61.017 210.31 60.2167 210.31 60.0366C210.31 59.8564 209.164 57.7944 207.762 55.4529C206.361 53.1115 205.02 50.8401 204.783 50.4049C204.33 49.5735 201.457 45.4951 201.088 45.1602C200.97 45.0531 200.277 44.1769 199.548 43.2131C198.818 42.2492 198.131 41.373 198.02 41.2659C197.908 41.1588 197.233 40.3702 196.52 39.5134C190.74 32.5698 181.083 23.9098 173.987 19.3048C172.718 18.4821 170.97 17.3099 170.102 16.7014C162.993 11.7177 145.34 4.40411 135.549 2.38685C134.492 2.16876 132.33 1.72384 130.744 1.39866C123.748 -0.0393209 107.314 -0.459905 98.2646 0.568198ZM104.03 11.7147C96.6224 12.0789 90.5291 12.9502 89.7315 13.7593C89.6162 13.8751 89.7392 15.134 90.0044 16.5554L90.4858 19.1403L91.8763 18.9514C92.6422 18.8472 94.911 18.4714 96.9193 18.116C102.626 17.1055 116.836 16.8475 122.332 17.6536C128.088 18.4987 134.208 19.7429 137.087 20.6552C144.844 23.1134 149.248 24.8834 154.325 27.5812C160.88 31.0657 162.184 31.8514 165.848 34.5248L169.242 36.9996L170.418 35.7252C172.05 33.9562 172.75 32.8025 172.468 32.3401C172.272 32.0188 166.161 27.7769 163.736 26.2795C161.116 24.6614 151.594 19.6767 150.54 19.372C150.117 19.2503 148.301 18.598 146.504 17.9242C138.269 14.8331 129.266 12.4449 125.863 12.4469C124.975 12.4478 123.418 12.2853 122.403 12.0857C119.754 11.5668 110.74 11.3847 104.03 11.7147ZM54.8148 15.318C51.4218 17.2866 44.8249 21.5353 44.4588 21.986C44.2435 22.2518 43.1164 23.2079 41.9536 24.1104C37.3661 27.6747 32.8055 32.0159 27.2042 38.1504C22.0881 43.7544 14.2728 55.7216 10.2917 64.0477C7.92774 68.9906 4.56638 78.0683 3.0087 83.7141C1.78542 88.1507 0.541965 94.3222 0.247918 97.4182L0 100.025L1.29438 100.27C4.24062 100.83 5.61956 100.405 5.7368 98.902C6.01163 95.3864 8.43512 84.3703 9.46333 81.9616C9.73719 81.3191 10.1773 80.0924 10.4396 79.2356C15.9449 61.2973 29.1856 41.7225 43.4911 30.3725C44.8653 29.283 46.8073 27.7136 47.8057 26.8871C48.8051 26.0595 51.6966 24.0938 54.2315 22.5176C59.2044 19.4275 59.2563 19.3515 58.0782 16.8864C56.9145 14.4505 56.5839 14.2908 54.8148 15.318ZM104.222 23.3452C99.0517 23.7989 94.8504 24.4141 90.7049 25.3244C88.7321 25.7587 86.5988 26.2172 85.9646 26.3448C85.3304 26.4723 84.6385 26.704 84.4271 26.8598C84.2157 27.0156 83.0914 27.4391 81.9287 27.7993C80.766 28.1605 79.5138 28.622 79.1468 28.8245C78.7797 29.028 78.3107 29.1935 78.1051 29.1935C77.6025 29.1935 71.1191 32.3537 68.4755 33.8871C67.3128 34.5618 65.8445 35.403 65.2132 35.7554C57.1826 40.2456 45.5466 50.9189 39.4629 59.3745C38.8469 60.2313 38.23 61.0199 38.0916 61.127C37.9532 61.2341 37.7716 61.4969 37.6871 61.7111C37.6015 61.9253 36.705 63.3672 35.6941 64.9152C32.8689 69.2398 28.3823 78.5911 26.7669 83.5194C26.2058 85.2329 25.5956 86.9853 25.4101 87.4137C25.2256 87.8421 24.6298 90.2497 24.0859 92.7645C18.6153 118.091 24.0936 146.091 38.3876 165.855C45.3842 175.53 52.6623 182.638 62.1333 189.049C67.2119 192.487 81.2464 199.376 83.1712 199.376C83.5507 199.376 84.1609 199.531 84.528 199.723C85.1353 200.039 87.6174 200.777 91.1537 201.692C98.1772 203.511 110.601 204.413 118.761 203.697C126.769 202.994 130.334 202.236 139.585 199.271C142.034 198.486 146.879 196.399 150.924 194.388C152.827 193.442 154.733 192.531 155.162 192.365C158.116 191.217 168.486 183.293 173.749 178.162C177.768 174.245 186.094 164.019 186.094 163.002C186.094 162.917 186.681 161.965 187.397 160.887C188.543 159.16 192.644 150.983 194.264 147.192C201.933 129.249 202.742 101.331 196.078 84.6877C195.906 84.2593 195.291 82.5945 194.71 80.988C187.348 60.61 171.381 42.8295 151.308 32.6575C141.276 27.5724 136.176 25.9534 123.292 23.7628C119.847 23.1777 108.879 22.9372 104.222 23.3452ZM28.8925 54.6079C26.3172 57.6094 19.2255 70.7956 17.4276 75.9254C16.6041 78.2766 14.2978 85.5084 13.5166 88.1926C13.3292 88.8351 12.8919 90.8504 12.5441 92.671C12.1972 94.4916 11.7609 96.5946 11.5755 97.3442C9.72278 104.84 10.7318 132.713 12.941 135.072C13.3686 135.528 13.7818 135.524 15.6873 135.047L17.9302 134.485L17.8004 132.402C17.7293 131.255 17.5208 129.918 17.3382 129.431C15.8142 125.37 15.6402 108.164 17.0403 99.8755C17.2575 98.5904 17.5756 96.6627 17.7485 95.5918C18.3395 91.9185 19.2659 88.4837 21.477 81.7669C22.5619 78.4713 24.625 73.2043 25.0613 72.6152C25.2208 72.4011 26.3307 70.2981 27.528 67.942C28.7253 65.586 30.6511 62.2427 31.8071 60.5126C34.1614 56.9873 34.1604 56.7838 31.7638 54.9934C29.7487 53.4873 29.8439 53.4999 28.8925 54.6079ZM147.105 79.2327C147.654 82.1943 146.935 82.7327 140.852 83.9175C139.558 84.1697 139.003 85.0742 139.436 86.2201C139.704 86.9259 142.418 86.8042 144.54 85.9913C145.734 85.5337 146.888 86.5336 146.888 88.0261C146.888 90.1845 146.886 90.1855 141.123 91.8678C140.092 92.1677 139.739 93.2435 140.139 94.8577C140.394 95.8897 140.184 95.8916 144.684 94.8129C147.699 94.0905 147.868 94.147 148.21 95.9939C148.682 98.5408 148.261 99.0227 144.966 99.7022C144.015 99.8979 141.687 100.412 139.792 100.844C137.038 101.472 136.254 101.533 135.885 101.142C135.358 100.584 134.428 90.129 134.408 84.5329L134.396 80.8741L135.933 80.3202C136.779 80.0154 138.249 79.6153 139.201 79.4313C140.152 79.2463 141.882 78.8394 143.044 78.5268C146.461 77.6087 146.816 77.6701 147.105 79.2327ZM132.182 81.8643C132.39 82.132 132.765 85.856 133.016 90.1397C133.267 94.4235 133.561 98.6294 133.669 99.4861C133.983 101.95 130.84 104.215 129.282 102.646C128.844 102.205 128.093 95.4983 128.062 91.7442C128.056 90.8271 127.747 91.2155 126.367 93.8861C124.779 96.9616 124.574 97.1885 122.819 97.8252L120.955 98.5008L119.015 96.5595C116.366 93.9084 116.371 93.9026 116.659 100.02C116.947 106.144 116.944 106.15 114.132 106.542C111.832 106.861 111.837 106.873 111.483 99.711C111.319 96.3745 111.064 92.3059 110.918 90.6694C110.552 86.5754 110.79 85.8248 112.579 85.4295C114.638 84.9749 115.275 85.1277 116.375 86.3408C118.702 88.9072 122.021 92.2923 122.115 92.194C122.277 92.0246 125.869 85.6165 126.674 84.0607C127.859 81.7728 131.104 80.4789 132.182 81.8643ZM104.969 89.1545C114.058 93.852 109.09 110.342 98.5866 110.342C88.0345 110.342 86.94 94.5481 97.1115 89.0425C98.8124 88.1225 103.09 88.1828 104.969 89.1545ZM87.2523 92.1843C87.7385 93.1218 88.0354 95.7252 88.4611 102.796C88.661 106.116 88.9368 109.479 89.0742 110.27C89.3058 111.597 89.2261 111.768 88.0297 112.508C85.045 114.351 84.1398 113.566 83.7141 108.768C83.3922 105.131 83.2038 104.65 82.2996 105.14C81.9123 105.35 81.2349 105.522 80.7948 105.522C80.3547 105.522 78.9738 105.811 77.7246 106.162L75.4539 106.802L75.673 111.025L75.893 115.249L74.5035 115.837C71.097 117.28 70.8654 116.816 70.3772 107.575C70.1649 103.555 69.8891 99.268 69.7642 98.0501L69.5374 95.8352L71.0163 95.2092C74.122 93.8948 74.8639 94.6455 74.9648 99.2067C75.0224 101.839 75.2934 101.933 79.6705 100.837L83.1721 99.9603L82.9117 96.578C82.6215 92.8229 82.7109 92.6262 85.0037 91.9623C86.8679 91.4229 86.8564 91.4219 87.2523 92.1843ZM206.54 91.9613C204.528 92.4169 204.405 92.6944 204.914 95.622C207.288 109.243 206.846 125.702 203.811 136.677C201.828 143.853 201.583 144.633 200.156 148.36C195.915 159.435 188.512 171.272 180.644 179.557C176.426 184 170.798 189.153 169.244 189.995C168.821 190.225 168.243 190.646 167.963 190.93C167.682 191.214 165.553 192.71 163.234 194.254C158.169 197.624 158.22 197.546 159.417 200.081C160.477 202.325 161.192 202.59 162.951 201.393C163.524 201.003 165.377 199.743 167.068 198.591C176.062 192.465 185.005 184.154 190.322 176.979C191.272 175.696 192.149 174.559 192.27 174.452C192.731 174.044 195.704 169.8 195.704 169.55C195.704 169.406 196.302 168.445 197.033 167.414C198.518 165.319 204.544 153.404 204.544 152.562C204.544 152.264 204.702 151.854 204.893 151.651C205.22 151.305 206.011 149.032 207.937 142.908C209.387 138.297 210.708 131.853 211.831 123.916C212.349 120.258 212.353 107.399 211.837 103.38C211.223 98.5875 210.22 92.9407 209.849 92.1843C209.481 91.4356 209.004 91.4034 206.54 91.9613ZM98.0725 94.0126C93.5685 96.506 94.2595 105.133 98.9642 105.133C103.859 105.133 106.85 98.0209 103.33 94.7516C101.774 93.3078 99.8387 93.0352 98.0725 94.0126ZM163.674 106.138C163.81 106.499 162.748 109.089 161.105 112.4L158.304 118.046L158.544 122.843C158.82 128.374 158.749 128.527 155.842 128.629L153.999 128.694L153.667 124.161L153.333 119.627L149.733 115.204C145.223 109.663 145.194 109.371 149.093 108.84C151.259 108.545 151.504 108.693 154.092 111.865C155.311 113.358 155.464 113.261 156.992 110.043C158.521 106.825 158.675 106.675 161.11 106.056C163.484 105.451 163.412 105.448 163.674 106.138ZM144.097 110.682C145.347 112.296 144.725 115.258 143.136 115.258C140.214 115.258 137.279 116.585 137.279 117.906V119.259L139.105 118.95C140.109 118.781 141.622 118.626 142.468 118.605L144.005 118.568L144.121 120.382C144.255 122.487 143.371 123.436 141.276 123.436C139.054 123.436 137.279 124.461 137.279 125.747C137.279 128.342 137.74 128.501 142.004 127.374C145.123 126.551 145.687 126.807 146.002 129.184C146.256 131.098 146.232 131.113 140.815 132.412C138.976 132.854 136.647 133.414 135.642 133.657C133.054 134.284 133.023 134.209 132.437 126.092C131.475 112.771 131.444 112.933 135.063 112.16C135.964 111.967 137.999 111.466 139.585 111.045C143.126 110.107 143.619 110.067 144.097 110.682ZM129.767 115.136C129.91 115.712 130.178 118.91 130.365 122.244C130.55 125.577 130.82 129.622 130.964 131.234C131.27 134.644 131.055 134.984 128.363 135.358L126.635 135.598L123.744 132.535C122.155 130.851 120.145 128.685 119.28 127.723C117.129 125.328 116.938 125.756 117.41 131.918C117.851 137.661 117.835 137.715 115.538 138.241C113.031 138.813 112.831 138.48 112.549 133.288C112.412 130.761 112.097 126.669 111.851 124.196C111.282 118.471 111.448 117.751 113.471 117.199C115.728 116.583 116.073 116.801 120.584 121.703C125.747 127.312 125.526 127.367 125.192 120.552C124.881 114.181 124.905 114.124 127.916 114.102C129.327 114.091 129.537 114.209 129.767 115.136ZM105.55 120.702C109.751 122.641 111.716 128.159 110.039 133.308C106.064 145.518 90.9471 144.793 90.9663 132.393C90.9798 123.867 98.8085 117.591 105.55 120.702ZM87.9874 123.371C88.5505 123.733 89.0079 127.52 89.6172 136.835C90.1159 144.472 90.0755 144.593 87.0332 144.635L85.1959 144.66L84.6539 139.111C84.0283 132.71 84.0524 132.74 82.3534 136.127C80.077 140.67 77.715 141.333 74.8552 138.235C72.4673 135.649 72.5499 135.496 72.8257 141.948L73.0669 147.608L72.1579 147.959C68.242 149.467 68.1594 149.355 67.6789 141.934C66.7199 127.11 66.7151 128.176 67.7462 127.782C70.9759 126.548 71.2238 126.678 76.2265 132.242C78.404 134.664 78.2204 134.777 81.0475 129.278C83.6382 124.238 86.0905 122.151 87.9874 123.371ZM99.6263 125.503C96.0699 126.746 94.5439 133.123 97.222 135.548C101.47 139.394 107.715 133.07 105.118 127.552C104.097 125.381 102.102 124.637 99.6263 125.503ZM3.41998 138.687C2.35526 139.082 1.83923 141.366 2.69351 141.9C2.87512 142.014 3.13074 142.897 3.26142 143.862C3.39211 144.828 3.67078 145.927 3.88123 146.307C4.09167 146.686 4.77009 148.574 5.3899 150.502C6.00874 152.43 6.73041 154.532 6.99178 155.175C7.7663 157.076 8.36497 158.593 8.91174 160.043C9.19522 160.793 9.82655 162.059 10.3147 162.859C10.8038 163.658 11.2036 164.498 11.2036 164.727C11.2036 164.956 11.809 166.102 12.5489 167.274C13.2888 168.446 13.8942 169.511 13.8942 169.641C13.8942 170.567 23.5613 184.691 25.6292 186.786C25.9204 187.081 26.7766 188.087 27.5328 189.022C29.4066 191.339 35.869 197.716 38.6864 200.029C42.6955 203.32 45.9944 205.867 46.841 206.326C47.2907 206.57 47.8893 206.998 48.1699 207.276C50.8125 209.902 64.4242 217.152 71.3584 219.629C73.8952 220.535 76.3168 221.407 76.7396 221.567C77.7188 221.936 80.8467 222.899 83.0818 223.52C84.0331 223.784 85.3304 224.171 85.9646 224.379C87.4493 224.867 90.311 225.323 97.6881 226.246C109.927 227.776 125.032 226.936 136.126 224.108C137.5 223.757 139.316 223.317 140.162 223.128C141.597 222.808 144.418 221.979 145.735 221.492C146.052 221.374 148.041 220.706 150.155 220.006C152.269 219.307 154.163 218.584 154.364 218.401C154.565 218.218 154.949 218.068 155.219 218.068C156.047 218.068 162.666 214.644 168.605 211.143C169.874 210.396 171.51 209.44 172.242 209.019C178.849 205.218 192.782 192.451 198.901 184.588C201.964 180.653 201.908 181.075 199.592 179.353C197.175 177.555 196.861 177.589 195.307 179.807C191.478 185.272 181.675 195.074 176.101 199.01C175.361 199.532 174.669 200.065 174.563 200.192C174.048 200.817 168.552 204.566 166.049 205.999C164.495 206.89 162.951 207.866 162.618 208.17C162.283 208.474 161.721 208.722 161.369 208.722C161.015 208.722 160.726 208.897 160.726 209.111C160.726 209.326 160.556 209.501 160.347 209.501C160.139 209.501 158.106 210.392 155.831 211.48C153.555 212.569 149.531 214.164 146.888 215.025C144.246 215.887 141.738 216.734 141.315 216.908C140.892 217.082 140.114 217.331 139.585 217.462C139.057 217.591 137.673 217.965 136.51 218.292C121.985 222.374 98.0504 222.171 84.2349 217.849C82.438 217.288 80.4488 216.687 79.8146 216.515C71.4669 214.252 56.0564 206.448 49.449 201.137C48.6033 200.457 47.2878 199.476 46.5258 198.957C42.978 196.541 32.6469 186.576 29.3932 182.432C25.1929 177.083 23.5987 174.99 23.4642 174.647C23.3796 174.432 22.5119 173.031 21.5366 171.531C19.7694 168.815 18.6268 166.755 15.5316 160.7C13.7779 157.268 10.8192 149.708 10.8192 148.659C10.8192 148.305 10.6462 147.908 10.4348 147.776C10.2234 147.643 10.0495 147.238 10.0485 146.876C10.0466 146.514 9.78716 145.716 9.47197 145.102C9.15582 144.489 8.89733 143.741 8.89733 143.441C8.89733 143.142 8.60905 141.848 8.25734 140.565L7.61832 138.235L6.04719 138.266C5.1833 138.282 4.00135 138.472 3.41998 138.687ZM26.8352 163.338C24.0686 165.001 24.0706 164.992 26.0424 168.202C27.0139 169.784 29.2183 172.933 30.9403 175.199C32.6633 177.465 34.3315 179.666 34.6495 180.09C38.5077 185.235 49.6498 194.703 59.6349 201.322C61.7528 202.726 73.4599 208.333 76.1631 209.238C80.9264 210.834 88.4467 212.904 91.9224 213.575C93.7194 213.923 96.0545 214.384 97.1115 214.601C103.198 215.845 121.062 215.857 125.747 214.62C126.487 214.424 128.364 214.038 129.918 213.76C133.177 213.178 133.352 212.944 132.611 210.16C131.996 207.842 132.171 207.886 126.708 208.698C110.324 211.135 93.7117 209.673 79.9991 204.589C78.6202 204.078 77.3556 203.659 77.1874 203.659C77.0202 203.659 74.5506 202.52 71.6995 201.128C68.8484 199.736 66.4326 198.597 66.3317 198.597C65.6936 198.597 53.5089 190.255 52.7161 189.276C52.6104 189.144 52.005 188.705 51.3708 188.298C48.9233 186.73 40.9062 178.69 38.0205 174.911C36.9289 173.48 35.8151 172.084 35.547 171.808C35.2789 171.531 33.728 169.297 32.1002 166.842C28.8829 161.988 28.9771 162.051 26.8352 163.338Z" fill="#00687B"/>
</svg>
